# xmcd
# 
# Track frame offsets:
#     182
#     20395
#     37257
#     56477
#     73135
#     91057
#     108680
#     128685
#     146642
#     165485
# 
# Disc length: 2423
# 
# Revision: 8
# Processed by: cddbd v1.5.2PL0 Copyright (c) Steve Scherf et al.
# Submitted via: fre:ac v1.0.31
# 
DISCID=8909750a
DTITLE=Chaka Khan - Naughty
DYEAR=1980
DGENRE=R&B
TTITLE0=Clouds
TTITLE1=Get Ready, Get Set
TTITLE2=Move Me No Mountain
TTITLE3=Nothing's Gonna Take You Away
TTITLE4=So Naughty
TTITLE5=Too Much Love
TTITLE6=All Night's All Right
TTITLE7=What You Did
TTITLE8=Papillon (AKA Hot Butterfly)
TTITLE9=Our Love's In Danger
EXTD=
EXTT0=
EXTT1=
EXTT2=
EXTT3=
EXTT4=
EXTT5=
EXTT6=
EXTT7=
EXTT8=
EXTT9=
PLAYORDER=
